<svg width="160" height="165" viewBox="0 0 160 165" fill="none" xmlns="http://www.w3.org/2000/svg">
<path d="M28.6621 164.506H130.858C134.553 164.506 138.094 162.994 140.706 160.3L155.441 145.103C158.053 142.409 159.521 138.756 159.521 134.947V122.559H144.699V142.039C144.699 146.005 141.582 149.222 137.735 149.222H21.7848C17.9381 149.222 14.8208 146.005 14.8208 142.039V122.559H0.000793457V134.947C0.000793457 138.756 1.46746 142.409 4.07946 145.103L18.8141 160.3C21.4261 162.994 24.9688 164.506 28.6621 164.506Z" fill="white"/>
<path d="M130.859 -3.10926e-05H28.6627C24.968 -3.10926e-05 21.4267 1.51261 18.8147 4.20649L4.08 19.403C1.468 22.0969 0 25.7506 0 29.5597V41.9469H14.8213V22.4668C14.8213 18.501 17.9387 15.2845 21.7853 15.2845H137.736C141.583 15.2845 144.7 18.501 144.7 22.4668V41.9469H159.52V29.5597C159.52 25.7506 158.053 22.0969 155.441 19.403L140.707 4.20649C138.095 1.51261 134.552 -3.10926e-05 130.859 -3.10926e-05Z" fill="white"/>
<path d="M90.1796 41.9472H69.341C65.6476 41.9472 62.105 43.4599 59.493 46.1537L44.7583 61.3503C42.1463 64.0442 40.6796 67.6979 40.6796 71.507V122.559H55.501V64.4141C55.501 60.4482 58.6183 57.2318 62.4636 57.2318H97.057C100.904 57.2318 104.021 60.4482 104.021 64.4141V122.559H118.841V71.507C118.841 67.6979 117.374 64.0442 114.762 61.3503L100.028 46.1537C97.4156 43.4599 93.873 41.9472 90.1796 41.9472Z" fill="white"/>
</svg>
